<?xml version="1.0" encoding="UTF-8"?>
<svg id="Layer_2" data-name="Layer 2" xmlns="http://www.w3.org/2000/svg" viewBox="0 0 2432.63 401.62">
  <defs>
    <style>
      .cls-1 {
        fill: #5c90ff;
      }

      .cls-2 {
        fill: #153788;
      }
    </style>
  </defs>
  <g id="Capa_1" data-name="Capa 1">
    <g>
      <g>
        <path class="cls-2" d="M594.26,109.83c-11.21,89.53-26.79,129.87-74.3,132.92-60.89,3.91-73.27-80.01-66.08-132.92h-89.85c-18.46,219.25,169.51,257.68,261.56,176.4,36.87-32.55,54.3-118.65,44.85-176.4h-76.17Z"/>
        <path class="cls-2" d="M373.77,201.32c-1.88,41.3-134.79,81.26-200.09,59.21-14.04-4.74,25.19-3.51,14.31-4.12,101.13,1.59,119.53-33.31,131.44-56.67,18.78-49.46-19.76-86.03-47.78-101.49-55.67-31.5-163.61-29.93-220.44,12.49-65.2,46.78-68.99,144.34-6.52,191.59,95.76,72.42,299.26,46.72,388.71-21.05-1.08.82,78.61-51.5-59.64-79.97ZM171.92,151.6c32.1-3.53,63.78,7.4,53.7,29.39-14.19,30.4-123.94,22.17-123.26,6.84-.46-14.2,21.72-30.97,69.56-36.22Z"/>
      </g>
      <path class="cls-2" d="M2099.2,208.67c-17.88-189.28-411.54-133.94-322.81,63.63,60.68,124.81,333.6,92.54,322.81-63.63ZM1932.46,178.5c88.36.54,86.36,86.86-10.68,82.56-73.14-6.56-80.99-78.87,10.68-82.56Z"/>
      <path class="cls-2" d="M2196.06,324.23c11.39-95.53,12.95-137.23,85.63-136.64,52.36.42,64.34,80.18,57.03,136.64h91.31c27.16-239.95-165.27-267.62-258.81-180.89-37.47,34.74-62.17,119.26-52.57,180.89h77.41Z"/>
      <path class="cls-2" d="M1832.99,236.64c-74.57,38.43-117.07,27.08-133.59-9.34,2.27-13.56,4.97-33.24,5.39-48.74.66-24.68.99-41.84-3.39-69.01l-99.46.07c6.4,43.86,6.37,76.11-4.19,106.78-.38-.09-6.16,34.6-67.78,42.78-7.1.94-18.34,1.95-30.09,1.6-9.36-.28-19.04-1.42-27.22-4.15-.54-.18-11.83,15.2-20.52,33.18-2.9,6-5.51,12.28-7.34,18.37-5.57,18.55-11.27,33.91-10.56,34.11,140.55,21.53,214.16-27.72,214.16-28.63,44.17,32.32,115.08,39.37,211.05,5.45l-26.46-82.48Z"/>
      <path class="cls-2" d="M2197.41,118.75h-85.09s-3.09,65.52-2.16,95.25c.94,29.74,2.16,109.49,2.16,109.49h85.09V118.75Z"/>
      <path class="cls-2" d="M1531.99,92.22c-34.54.83-74.03,6.32-106.52,20.77h-81.03s-.9,74.32-2.33,97.28c-1.43,22.96,1.84,81.97,1.51,96.5l-.05,2.07c-.09,4.15-.17,8.47-.22,12.88,0,0,.16-.01.44-.04.19.4.51.68.98.82,36.08,11.05,61.53,16.34,90.19,20.79.18-5.23-4.54-93.56,9.36-123.39,10.61-22.76,57.49-35.69,89.51-35.6l-1.84-92.09Z"/>
      <g>
        <path class="cls-1" d="M813.23,401.12c-1.26-42.63.69-121.78,2.2-159.15l.08-2.01c1.75-43.43,1.55-101.15,24.53-147.49,26.36-53.14,86.99-87.45,147.88-88.38l.24,91.22c-26.02.4-52.82,16.64-63.72,38.62-14.29,28.82-15.52,70.02-17.07,108.52l-.08,2.02c-1.43,35.42-3.37,116.46-2.17,157.14l-91.89-.5Z"/>
        <path class="cls-1" d="M1058.57,217.98c-18.53,10.66-9.91-24.47-33.75-10.28-113.12,67.33-276.47,27.85-280.99-97.86h-73.12c-11.81,140.56,80.66,210.16,223.86,211.63,68.31.7,126.21-14.12,150.45-32.97,19.62-15.26,3.46-39.36,13.55-70.52Z"/>
        <path class="cls-2" d="M1325.48,208.67c-17.53-185.66-403.66-131.37-316.63,62.41,59.51,122.42,327.22,90.77,316.63-62.41ZM1161.94,179.07c86.67.53,84.71,85.2-10.47,80.98-71.74-6.44-79.44-77.36,10.47-80.98Z"/>
      </g>
    </g>
    <path class="cls-2" d="M1650.24.02c71.58-1.46,72.25,81.38-6.45,79.42-59.41-4.66-67.68-73.83,6.45-79.42Z"/>
    <path class="cls-2" d="M1978.73,68.44l78.19-52.95c-34.27-9.82-71.29-14.35-108.48-13.88l-50.18,69.41h.67c26.24-4.52,53.51-5.46,79.8-2.59Z"/>
  </g>
</svg>